# xmcd
#
# Track frame offsets:
#	182
#	12837
#	22110
#	29930
#	40462
#	50202
#	61455
#	71702
#	81490
#	93077
#
# Disc length: 1363 seconds
#
# Revision: 0
# Processed by: cddbd v1.4PL0 Copyright (c) Steve Scherf et al.
# Submitted via: dBpowerAMP V4.0
#
DISCID=9205510a
DTITLE=Oak Ridge Boys - Gospel Favorites
DYEAR=1995
DGENRE=Gospel
TTITLE0=How Great Thou Art
TTITLE1=I Love Him So
TTITLE2=Hear Him Call
TTITLE3=What Can I Do
TTITLE4=The Hour of Prayer
TTITLE5=I Will Live For Jesus
TTITLE6=He was a Preachin' Man
TTITLE7=Lord I Need You  (Again Today)
TTITLE8=Home Sweet Home
TTITLE9=I'll Be Welcome Over There
EXTD=
EXTT0=
EXTT1=
EXTT2=
EXTT3=
EXTT4=
EXTT5=
EXTT6=
EXTT7=
EXTT8=
EXTT9=
PLAYORDER=
